# xmcd CD database file
#
# Track frame offsets:
#	150
#	15878
#	31615
#	47168
#	59575
#	77558
#	93877
#	108857
#	122980
#	141773
#
# Disc length: 2051 seconds
#
# Revision: 0
# Processed by: cddbd v1.5.2PL0 Copyright (c) Steve Scherf et al.
# Submitted via: CDex 1.70beta2
#
DISCID=7208010a
DTITLE=Ernie Vincent - Bayou Road Blues
DYEAR=2009
DGENRE=Blues
TTITLE0=Party On The Bayou
TTITLE1=Swamp Daddy's
TTITLE2=Bayou Road
TTITLE3=King Bee
TTITLE4=Mardi Gras Chief
TTITLE5=I'm Your Snake Baby
TTITLE6=Just Like My Woman
TTITLE7=River City Peaople
TTITLE8=I Can't Believe
TTITLE9=Swamp Jump Boogie
EXTD=YEAR: 2009
EXTT0=
EXTT1=
EXTT2=
EXTT3=
EXTT4=
EXTT5=
EXTT6=
EXTT7=
EXTT8=
EXTT9=
PLAYORDER=
